<svg width="789" height="663" viewBox="0 0 789 663" fill="none" xmlns="http://www.w3.org/2000/svg">
<g opacity="0.6" filter="url(#filter0_f_187_376)">
<path d="M425.336 251.186C425.182 293.345 390.34 327.524 347.516 327.524C346.017 327.524 344.517 327.493 343.017 327.399C342.475 327.367 341.933 327.367 341.358 327.367C325.658 327.367 312.881 339.902 312.825 355.358C312.804 361.044 314.508 366.322 317.428 370.72C325.457 382.752 330.064 397.171 330.008 412.659C329.855 454.818 295.012 488.997 252.188 488.997C209.365 488.997 174.77 454.818 174.923 412.659C174.98 397.171 179.723 382.752 187.808 370.72C190.792 366.322 192.502 361.013 192.523 355.358C192.579 339.902 179.892 327.367 164.192 327.367C163.65 327.367 163.075 327.367 162.533 327.399H162.501C161.032 327.493 159.533 327.524 158.033 327.524C115.305 327.524 80.7105 293.345 80.8635 251.186C81.0166 209.028 115.859 174.848 158.683 174.848C201.506 174.848 236.101 209.028 235.948 251.186C235.903 263.532 232.893 275.156 227.59 285.491C225.63 289.261 224.53 293.534 224.513 298.057C224.457 313.513 237.144 326.048 252.844 326.048C268.544 326.048 281.321 313.513 281.377 298.057C281.394 293.534 280.324 289.261 278.392 285.491C273.164 275.187 270.238 263.532 270.283 251.186C270.404 209.028 305.247 174.848 348.071 174.848C390.894 174.848 425.489 209.028 425.336 251.186Z" fill="url(#paint0_linear_187_376)" fill-opacity="0.8"/>
<path d="M425.336 251.186C425.182 293.345 390.34 327.524 347.516 327.524C346.017 327.524 344.517 327.493 343.017 327.399C342.475 327.367 341.933 327.367 341.358 327.367C325.658 327.367 312.881 339.902 312.825 355.358C312.804 361.044 314.508 366.322 317.428 370.72C325.457 382.752 330.064 397.171 330.008 412.659C329.855 454.818 295.012 488.997 252.188 488.997C209.365 488.997 174.77 454.818 174.923 412.659C174.98 397.171 179.723 382.752 187.808 370.72C190.792 366.322 192.502 361.013 192.523 355.358C192.579 339.902 179.892 327.367 164.192 327.367C163.65 327.367 163.075 327.367 162.533 327.399H162.501C161.032 327.493 159.533 327.524 158.033 327.524C115.305 327.524 80.7105 293.345 80.8635 251.186C81.0166 209.028 115.859 174.848 158.683 174.848C201.506 174.848 236.101 209.028 235.948 251.186C235.903 263.532 232.893 275.156 227.59 285.491C225.63 289.261 224.53 293.534 224.513 298.057C224.457 313.513 237.144 326.048 252.844 326.048C268.544 326.048 281.321 313.513 281.377 298.057C281.394 293.534 280.324 289.261 278.392 285.491C273.164 275.187 270.238 263.532 270.283 251.186C270.404 209.028 305.247 174.848 348.071 174.848C390.894 174.848 425.489 209.028 425.336 251.186Z" fill="url(#paint1_linear_187_376)" fill-opacity="0.8"/>
</g>
<g opacity="0.6" filter="url(#filter1_f_187_376)">
<path d="M459.639 251.186C459.594 263.532 462.52 275.156 467.747 285.491C479.787 309.178 504.011 325.797 532.405 327.399C533.904 327.493 535.404 327.525 536.904 327.525C579.728 327.525 614.57 293.345 614.723 251.186C614.876 209.028 580.282 174.848 537.458 174.848C494.634 174.848 459.792 209.028 459.639 251.186Z" fill="url(#paint2_linear_187_376)" fill-opacity="0.8"/>
<path d="M459.639 251.186C459.594 263.532 462.52 275.156 467.747 285.491C479.787 309.178 504.011 325.797 532.405 327.399C533.904 327.493 535.404 327.525 536.904 327.525C579.728 327.525 614.57 293.345 614.723 251.186C614.876 209.028 580.282 174.848 537.458 174.848C494.634 174.848 459.792 209.028 459.639 251.186Z" fill="url(#paint3_linear_187_376)" fill-opacity="0.8"/>
</g>
<g opacity="0.6" filter="url(#filter2_f_187_376)">
<path d="M377.26 370.72C369.175 382.752 364.431 397.171 364.375 412.659C364.222 454.818 398.817 488.997 441.64 488.997C484.464 488.997 519.306 454.818 519.459 412.659C519.516 397.171 514.877 382.752 506.879 370.72C493.074 350.018 469.286 336.321 442.194 336.321C415.103 336.321 391.184 349.986 377.26 370.72Z" fill="url(#paint4_linear_187_376)" fill-opacity="0.8"/>
<path d="M377.26 370.72C369.175 382.752 364.431 397.171 364.375 412.659C364.222 454.818 398.817 488.997 441.64 488.997C484.464 488.997 519.306 454.818 519.459 412.659C519.516 397.171 514.877 382.752 506.879 370.72C493.074 350.018 469.286 336.321 442.194 336.321C415.103 336.321 391.184 349.986 377.26 370.72Z" fill="url(#paint5_linear_187_376)" fill-opacity="0.8"/>
</g>
<defs>
<filter id="filter0_f_187_376" x="-93.1367" y="0.848145" width="692.473" height="662.149" filterUnits="userSpaceOnUse" color-interpolation-filters="sRGB">
<feFlood flood-opacity="0" result="BackgroundImageFix"/>
<feBlend mode="normal" in="SourceGraphic" in2="BackgroundImageFix" result="shape"/>
<feGaussianBlur stdDeviation="87" result="effect1_foregroundBlur_187_376"/>
</filter>
<filter id="filter1_f_187_376" x="285.639" y="0.848145" width="503.086" height="500.676" filterUnits="userSpaceOnUse" color-interpolation-filters="sRGB">
<feFlood flood-opacity="0" result="BackgroundImageFix"/>
<feBlend mode="normal" in="SourceGraphic" in2="BackgroundImageFix" result="shape"/>
<feGaussianBlur stdDeviation="87" result="effect1_foregroundBlur_187_376"/>
</filter>
<filter id="filter2_f_187_376" x="190.375" y="162.321" width="503.086" height="500.676" filterUnits="userSpaceOnUse" color-interpolation-filters="sRGB">
<feFlood flood-opacity="0" result="BackgroundImageFix"/>
<feBlend mode="normal" in="SourceGraphic" in2="BackgroundImageFix" result="shape"/>
<feGaussianBlur stdDeviation="87" result="effect1_foregroundBlur_187_376"/>
</filter>
<linearGradient id="paint0_linear_187_376" x1="157.29" y1="479.737" x2="474.973" y2="330.764" gradientUnits="userSpaceOnUse">
<stop stop-color="#76B4F4"/>
<stop offset="0.270833" stop-color="#519EF3"/>
<stop offset="0.541667" stop-color="#76B4F4"/>
<stop offset="0.755208" stop-color="#63B5FB"/>
<stop offset="0.979167" stop-color="#63B5FB"/>
</linearGradient>
<linearGradient id="paint1_linear_187_376" x1="157.29" y1="479.737" x2="474.973" y2="330.764" gradientUnits="userSpaceOnUse">
<stop stop-color="#0685F1"/>
<stop offset="1" stop-color="#62C4D2" stop-opacity="0"/>
</linearGradient>
<linearGradient id="paint2_linear_187_376" x1="494.159" y1="323.024" x2="640.965" y2="259.291" gradientUnits="userSpaceOnUse">
<stop stop-color="#0685F1"/>
<stop offset="0.270833" stop-color="#519EF3"/>
<stop offset="0.541667" stop-color="#76B4F4"/>
<stop offset="0.755208" stop-color="#62C4D2"/>
<stop offset="0.979167" stop-color="#63B5FB"/>
</linearGradient>
<linearGradient id="paint3_linear_187_376" x1="494.159" y1="323.024" x2="640.965" y2="259.291" gradientUnits="userSpaceOnUse">
<stop stop-color="#0685F1"/>
<stop offset="1" stop-color="#62C4D2" stop-opacity="0"/>
</linearGradient>
<linearGradient id="paint4_linear_187_376" x1="398.896" y1="484.497" x2="545.701" y2="420.763" gradientUnits="userSpaceOnUse">
<stop stop-color="#0685F1"/>
<stop offset="0.270833" stop-color="#519EF3"/>
<stop offset="0.541667" stop-color="#76B4F4"/>
<stop offset="0.755208" stop-color="#62C4D2"/>
<stop offset="0.979167" stop-color="#63B5FB"/>
</linearGradient>
<linearGradient id="paint5_linear_187_376" x1="398.896" y1="484.497" x2="545.701" y2="420.763" gradientUnits="userSpaceOnUse">
<stop stop-color="#0685F1"/>
<stop offset="1" stop-color="#62C4D2" stop-opacity="0"/>
</linearGradient>
</defs>
</svg>
