<svg width="32" height="33" viewBox="0 0 32 33" fill="none" xmlns="http://www.w3.org/2000/svg">
<path d="M2 12.4556C2 8.97078 2 7.2284 2.67818 5.89739C3.27473 4.72661 4.22661 3.77473 5.39739 3.17818C6.7284 2.5 8.47078 2.5 11.9556 2.5H20.0444C23.5292 2.5 25.2716 2.5 26.6026 3.17818C27.7734 3.77473 28.7253 4.72661 29.3218 5.89739C30 7.2284 30 8.97078 30 12.4556V20.5444C30 24.0292 30 25.7716 29.3218 27.1026C28.7253 28.2734 27.7734 29.2253 26.6026 29.8218C25.2716 30.5 23.5292 30.5 20.0444 30.5H11.9556C8.47078 30.5 6.7284 30.5 5.39739 29.8218C4.22661 29.2253 3.27473 28.2734 2.67818 27.1026C2 25.7716 2 24.0292 2 20.5444V12.4556Z" fill="white"/>
<path d="M6 13.1981V24H26V13.1981L16 19.4481L6 13.1981Z" fill="black"/>
<path d="M26 10.25V9H6V10.25L16 16.5L26 10.25Z" fill="black"/>
</svg>
