<svg width="24" height="18" viewBox="0 0 24 18" fill="none" xmlns="http://www.w3.org/2000/svg">
<path d="M23.25 2.1327C22.406 2.49943 21.513 2.74103 20.5992 2.84989C21.5595 2.28756 22.2817 1.39421 22.6303 0.337386C21.7224 0.868288 20.7307 1.24079 19.6978 1.43895C19.2629 0.983103 18.7397 0.620466 18.1603 0.373079C17.5808 0.125692 16.9571 -0.00127863 16.327 -0.000114132C13.7761 -0.000114132 11.7117 2.03426 11.7117 4.54207C11.7099 4.8909 11.7499 5.23869 11.8308 5.57801C10.0016 5.49226 8.2104 5.02563 6.57187 4.20797C4.93333 3.39032 3.48351 2.23965 2.31516 0.829573C1.90527 1.52057 1.6885 2.30897 1.6875 3.11239C1.6875 4.68739 2.50922 6.07957 3.75 6.8952C3.01487 6.87775 2.29481 6.68318 1.65094 6.32801V6.38426C1.65094 8.58739 3.24469 10.4202 5.35406 10.8374C4.9574 10.9431 4.54864 10.9967 4.13812 10.9968C3.84683 10.9973 3.5562 10.969 3.27047 10.9124C3.85687 12.7171 5.56359 14.0296 7.58531 14.0671C5.94252 15.3331 3.9256 16.0174 1.85156 16.0124C1.48341 16.0118 1.11561 15.9899 0.75 15.9468C2.85993 17.2941 5.31255 18.0067 7.81594 17.9999C16.3172 17.9999 20.9616 11.0764 20.9616 5.07176C20.9616 4.87489 20.9564 4.67801 20.947 4.48582C21.8485 3.8446 22.6283 3.04775 23.25 2.1327V2.1327Z" fill="white"/>
</svg>
