<svg width="22" height="22" viewBox="0 0 22 22" fill="none" xmlns="http://www.w3.org/2000/svg">
<path fill-rule="evenodd" clip-rule="evenodd" d="M18.4405 3.55247C17.4697 2.58125 16.3165 1.81163 15.0471 1.28791C13.7777 0.764195 12.4172 0.496726 11.0441 0.500903C5.28125 0.500903 0.59 5.16872 0.587656 10.9072C0.585107 12.7344 1.06676 14.5297 1.98359 16.1103L0.5 21.5009L6.04297 20.0539C7.57729 20.8851 9.29484 21.3201 11.0398 21.3195H11.0441C16.8064 21.3195 21.4972 16.6512 21.5 10.9132C21.5035 9.54476 21.2348 8.18924 20.7095 6.92556C20.1843 5.66188 19.413 4.51528 18.4405 3.55247V3.55247ZM11.0441 19.5631H11.0403C9.48471 19.5636 7.95739 19.1472 6.61719 18.3575L6.29984 18.17L3.01062 19.0287L3.88859 15.837L3.68187 15.5089C2.81206 14.1318 2.35121 12.536 2.35297 10.9072C2.35297 6.13856 6.25344 2.25872 11.0473 2.25872C13.347 2.25461 15.5542 3.16412 17.1833 4.78721C18.8125 6.4103 19.7302 8.61403 19.7347 10.9137C19.7328 15.6828 15.8342 19.5631 11.0441 19.5631ZM15.8108 13.0854C15.5497 12.9551 14.2639 12.3261 14.0258 12.2393C13.7877 12.1526 13.6119 12.109 13.438 12.3697C13.2641 12.6303 12.763 13.2134 12.6106 13.3892C12.4583 13.565 12.3059 13.5842 12.0448 13.4539C11.7837 13.3236 10.9414 13.0493 9.94344 12.1634C9.16672 11.4739 8.64266 10.6226 8.49031 10.3625C8.33797 10.1023 8.47391 9.96122 8.60469 9.83184C8.72234 9.71512 8.86578 9.52809 8.99656 9.37622C9.12734 9.22434 9.17094 9.11559 9.25766 8.94215C9.34437 8.76872 9.30125 8.61684 9.23609 8.487C9.17094 8.35715 8.64828 7.077 8.43078 6.55622C8.21844 6.04903 8.00328 6.11793 7.84297 6.10997C7.69062 6.10247 7.51484 6.10059 7.34187 6.10059C7.20965 6.10403 7.07955 6.1347 6.9597 6.19067C6.83985 6.24664 6.73283 6.32672 6.64531 6.4259C6.40578 6.68653 5.73078 7.31653 5.73078 8.59528C5.73078 9.87403 6.66828 11.1115 6.79766 11.285C6.92703 11.4584 8.63984 14.0848 11.2606 15.2112C11.7473 15.4196 12.2445 15.6024 12.7503 15.7587C13.3761 15.9565 13.9456 15.9289 14.3956 15.8618C14.8977 15.7873 15.9425 15.2328 16.1595 14.6253C16.3766 14.0178 16.377 13.4975 16.3119 13.3892C16.2467 13.2809 16.0723 13.2153 15.8108 13.0854Z" fill="white"/>
</svg>
