<svg width="202" height="40" viewBox="0 0 202 40" fill="none" xmlns="http://www.w3.org/2000/svg">
<path d="M43.1175 9.92199C43.1175 15.1847 38.8508 19.4514 33.5881 19.4514C33.4038 19.4514 33.2195 19.4475 33.0352 19.4357C32.9685 19.4318 32.9018 19.4318 32.8312 19.4318C30.9018 19.4318 29.3371 20.9965 29.3371 22.9259C29.3371 23.6357 29.5489 24.2945 29.9097 24.8436C30.9018 26.3455 31.4744 28.1455 31.4744 30.0788C31.4744 35.3416 27.2077 39.6083 21.945 39.6083C16.6822 39.6083 12.4156 35.3416 12.4156 30.0788C12.4156 28.1455 12.992 26.3455 13.9803 24.8436C14.345 24.2945 14.5528 23.6318 14.5528 22.9259C14.5528 20.9965 12.9881 19.4318 11.0587 19.4318C10.992 19.4318 10.9214 19.4318 10.8548 19.4357H10.8508C10.6705 19.4475 10.4861 19.4514 10.3018 19.4514C5.05085 19.4514 0.78418 15.1847 0.78418 9.92199C0.78418 4.65924 5.05085 0.392578 10.3136 0.392578C15.5763 0.392578 19.843 4.65924 19.843 9.92199C19.843 11.4632 19.4783 12.9141 18.8312 14.2043C18.592 14.6749 18.4587 15.2083 18.4587 15.773C18.4587 17.7024 20.0234 19.2671 21.9528 19.2671C23.8822 19.2671 25.4469 17.7024 25.4469 15.773C25.4469 15.2083 25.3136 14.6749 25.0744 14.2043C24.4273 12.9181 24.0626 11.4632 24.0626 9.92199C24.0587 4.65924 28.3254 0.392578 33.5881 0.392578C38.8508 0.392578 43.1175 4.65924 43.1175 9.92199Z" fill="#0685F1"/>
<path d="M47.333 9.92199C47.333 11.4632 47.6977 12.9141 48.3448 14.2043C49.835 17.1612 52.8193 19.2357 56.3095 19.4357C56.4938 19.4475 56.6781 19.4514 56.8624 19.4514C62.1252 19.4514 66.3918 15.1847 66.3918 9.92199C66.3918 4.65924 62.1252 0.392578 56.8624 0.392578C51.5997 0.392578 47.333 4.65924 47.333 9.92199Z" fill="#63B5FB"/>
<path d="M37.262 24.8439C36.2737 26.3459 35.6973 28.1459 35.6973 30.0792C35.6973 35.342 39.9639 39.6086 45.2267 39.6086C50.4894 39.6086 54.7561 35.342 54.7561 30.0792C54.7561 28.1459 54.1796 26.3459 53.1914 24.8439C51.4855 22.2596 48.5561 20.5498 45.2267 20.5498C41.8973 20.5498 38.9639 22.2557 37.262 24.8439Z" fill="#319DFA"/>
<path d="M75.0742 5.87109H82.0154L87.6977 21.9456L93.8115 5.87109H98.0546L104.059 21.7652L109.749 5.87109H116.733L106.423 34.126H101.929L95.9056 18.024L89.6977 34.126H85.2546L75.0742 5.87109Z" fill="white"/>
<path d="M130.29 5.14551C132.956 5.14551 135.462 5.81217 137.807 7.14551C140.152 8.47884 141.984 10.2867 143.301 12.573C144.619 14.8592 145.274 17.3259 145.274 19.973C145.274 22.6396 144.611 25.1337 143.286 27.4514C141.96 29.769 140.156 31.5847 137.87 32.8906C135.584 34.1965 133.066 34.8514 130.313 34.8514C126.262 34.8514 122.803 33.4082 119.937 30.5259C117.07 27.6435 115.639 24.1416 115.639 20.02C115.639 15.6043 117.258 11.9259 120.497 8.98472C123.341 6.42786 126.603 5.14551 130.29 5.14551ZM130.407 11.82C128.203 11.82 126.372 12.5847 124.905 14.1181C123.439 15.6514 122.705 17.6122 122.705 20.0004C122.705 22.4592 123.431 24.4514 124.878 25.973C126.325 27.4984 128.16 28.2592 130.38 28.2592C132.599 28.2592 134.447 27.4906 135.921 25.9494C137.396 24.4083 138.133 22.4279 138.133 20.0004C138.133 17.5769 137.407 15.6083 135.96 14.0906C134.513 12.5769 132.662 11.82 130.407 11.82Z" fill="white"/>
<path d="M143.788 5.87109H151.012L158.149 22.5456L165.27 5.87109H172.459L160.435 34.126H155.839L143.788 5.87109Z" fill="white"/>
<path d="M200.655 22.0514H177.878C178.208 24.0592 179.086 25.6592 180.514 26.8436C181.941 28.0318 183.765 28.624 185.98 28.624C188.627 28.624 190.906 27.6985 192.812 25.8436L198.784 28.6475C197.294 30.7612 195.51 32.322 193.435 33.3338C191.357 34.3455 188.89 34.8514 186.035 34.8514C181.604 34.8514 177.992 33.4553 175.208 30.6553C172.42 27.8592 171.027 24.3573 171.027 20.1494C171.027 15.8396 172.416 12.2592 175.196 9.41219C177.976 6.56513 181.459 5.1416 185.647 5.1416C190.098 5.1416 193.714 6.56513 196.502 9.41219C199.29 12.2592 200.682 16.02 200.682 20.6945L200.655 22.0514ZM193.565 16.4671C193.098 14.8906 192.172 13.6122 190.796 12.624C189.416 11.6357 187.82 11.1455 185.996 11.1455C184.02 11.1455 182.286 11.6985 180.792 12.8083C179.855 13.5024 178.988 14.722 178.192 16.471H193.565V16.4671Z" fill="white"/>
</svg>
